<mxfile host="app.diagrams.net" agent="Mozilla/5.0 (Windows NT 10.0; Win64; x64) AppleWebKit/537.36 (KHTML, like Gecko) Chrome/140.0.0.0 Safari/537.36" version="28.2.5">
  <diagram name="Страница — 1" id="wa-vr_AJgp0xxl5yYlMI">
    <mxGraphModel dx="1281" dy="622" grid="1" gridSize="10" guides="1" tooltips="1" connect="1" arrows="1" fold="1" page="1" pageScale="1" pageWidth="827" pageHeight="1169" math="0" shadow="0">
      <root>
        <mxCell id="0" />
        <mxCell id="1" parent="0" />
        <mxCell id="kEQ07MBqHLjRysPlzJDt-6" style="edgeStyle=none;curved=1;rounded=0;orthogonalLoop=1;jettySize=auto;html=1;fontSize=12;startSize=8;endSize=8;" edge="1" parent="1" source="kEQ07MBqHLjRysPlzJDt-1" target="kEQ07MBqHLjRysPlzJDt-3">
          <mxGeometry relative="1" as="geometry" />
        </mxCell>
        <mxCell id="kEQ07MBqHLjRysPlzJDt-1" value="" style="ellipse;whiteSpace=wrap;html=1;" vertex="1" parent="1">
          <mxGeometry x="230" y="90" width="120" height="80" as="geometry" />
        </mxCell>
        <mxCell id="kEQ07MBqHLjRysPlzJDt-2" value="&lt;font style=&quot;vertical-align: inherit;&quot; dir=&quot;auto&quot;&gt;&lt;font style=&quot;vertical-align: inherit;&quot; dir=&quot;auto&quot;&gt;Начало&lt;/font&gt;&lt;/font&gt;" style="text;strokeColor=none;fillColor=none;html=1;align=center;verticalAlign=middle;whiteSpace=wrap;rounded=0;fontSize=16;" vertex="1" parent="1">
          <mxGeometry x="260" y="115" width="60" height="30" as="geometry" />
        </mxCell>
        <mxCell id="kEQ07MBqHLjRysPlzJDt-3" value="" style="shape=parallelogram;perimeter=parallelogramPerimeter;whiteSpace=wrap;html=1;fixedSize=1;" vertex="1" parent="1">
          <mxGeometry x="230" y="200" width="120" height="60" as="geometry" />
        </mxCell>
        <mxCell id="kEQ07MBqHLjRysPlzJDt-5" value="" style="edgeStyle=none;curved=1;rounded=0;orthogonalLoop=1;jettySize=auto;html=1;fontSize=12;startSize=8;endSize=8;" edge="1" parent="1" source="kEQ07MBqHLjRysPlzJDt-3">
          <mxGeometry relative="1" as="geometry">
            <mxPoint x="290" y="300" as="targetPoint" />
          </mxGeometry>
        </mxCell>
        <mxCell id="kEQ07MBqHLjRysPlzJDt-10" value="&lt;font style=&quot;vertical-align: inherit;&quot; dir=&quot;auto&quot;&gt;&lt;font style=&quot;vertical-align: inherit;&quot; dir=&quot;auto&quot;&gt;D, Rr, Rf, x&lt;/font&gt;&lt;/font&gt;" style="text;strokeColor=none;fillColor=none;html=1;align=center;verticalAlign=middle;whiteSpace=wrap;rounded=0;fontSize=16;" vertex="1" parent="1">
          <mxGeometry x="260" y="215" width="60" height="30" as="geometry" />
        </mxCell>
        <mxCell id="kEQ07MBqHLjRysPlzJDt-13" value="" style="edgeStyle=none;curved=1;rounded=0;orthogonalLoop=1;jettySize=auto;html=1;fontSize=12;startSize=8;endSize=8;" edge="1" parent="1" source="kEQ07MBqHLjRysPlzJDt-11" target="kEQ07MBqHLjRysPlzJDt-12">
          <mxGeometry relative="1" as="geometry" />
        </mxCell>
        <mxCell id="kEQ07MBqHLjRysPlzJDt-11" value="" style="rounded=0;whiteSpace=wrap;html=1;" vertex="1" parent="1">
          <mxGeometry x="230" y="300" width="120" height="60" as="geometry" />
        </mxCell>
        <mxCell id="kEQ07MBqHLjRysPlzJDt-15" value="" style="edgeStyle=none;curved=1;rounded=0;orthogonalLoop=1;jettySize=auto;html=1;fontSize=12;startSize=8;endSize=8;" edge="1" parent="1" source="kEQ07MBqHLjRysPlzJDt-12">
          <mxGeometry relative="1" as="geometry">
            <mxPoint x="290" y="530" as="targetPoint" />
          </mxGeometry>
        </mxCell>
        <mxCell id="kEQ07MBqHLjRysPlzJDt-12" value="" style="rounded=0;whiteSpace=wrap;html=1;" vertex="1" parent="1">
          <mxGeometry x="230" y="410" width="120" height="60" as="geometry" />
        </mxCell>
        <mxCell id="kEQ07MBqHLjRysPlzJDt-17" value="" style="edgeStyle=none;curved=1;rounded=0;orthogonalLoop=1;jettySize=auto;html=1;fontSize=12;startSize=8;endSize=8;" edge="1" parent="1" source="kEQ07MBqHLjRysPlzJDt-14" target="kEQ07MBqHLjRysPlzJDt-16">
          <mxGeometry relative="1" as="geometry" />
        </mxCell>
        <mxCell id="kEQ07MBqHLjRysPlzJDt-14" value="" style="rounded=0;whiteSpace=wrap;html=1;" vertex="1" parent="1">
          <mxGeometry x="230" y="525" width="120" height="60" as="geometry" />
        </mxCell>
        <mxCell id="kEQ07MBqHLjRysPlzJDt-19" value="" style="edgeStyle=none;curved=1;rounded=0;orthogonalLoop=1;jettySize=auto;html=1;fontSize=12;startSize=8;endSize=8;" edge="1" parent="1" source="kEQ07MBqHLjRysPlzJDt-16" target="kEQ07MBqHLjRysPlzJDt-18">
          <mxGeometry relative="1" as="geometry" />
        </mxCell>
        <mxCell id="kEQ07MBqHLjRysPlzJDt-16" value="" style="rounded=0;whiteSpace=wrap;html=1;" vertex="1" parent="1">
          <mxGeometry x="230" y="630" width="120" height="60" as="geometry" />
        </mxCell>
        <mxCell id="kEQ07MBqHLjRysPlzJDt-18" value="" style="rounded=0;whiteSpace=wrap;html=1;" vertex="1" parent="1">
          <mxGeometry x="230" y="750" width="120" height="60" as="geometry" />
        </mxCell>
        <mxCell id="kEQ07MBqHLjRysPlzJDt-23" value="&lt;font style=&quot;vertical-align: inherit;&quot; dir=&quot;auto&quot;&gt;&lt;font style=&quot;vertical-align: inherit;&quot; dir=&quot;auto&quot;&gt;&lt;font style=&quot;vertical-align: inherit;&quot; dir=&quot;auto&quot;&gt;&lt;font style=&quot;vertical-align: inherit;&quot; dir=&quot;auto&quot;&gt;Drr = D/Rr&lt;/font&gt;&lt;/font&gt;&lt;/font&gt;&lt;/font&gt;" style="text;strokeColor=none;fillColor=none;html=1;align=center;verticalAlign=middle;whiteSpace=wrap;rounded=0;fontSize=16;" vertex="1" parent="1">
          <mxGeometry x="240" y="315" width="100" height="30" as="geometry" />
        </mxCell>
        <mxCell id="kEQ07MBqHLjRysPlzJDt-24" value="&lt;font style=&quot;vertical-align: inherit;&quot; dir=&quot;auto&quot;&gt;&lt;font style=&quot;vertical-align: inherit;&quot; dir=&quot;auto&quot;&gt;&lt;font style=&quot;vertical-align: inherit;&quot; dir=&quot;auto&quot;&gt;&lt;font style=&quot;vertical-align: inherit;&quot; dir=&quot;auto&quot;&gt;&lt;font style=&quot;vertical-align: inherit;&quot; dir=&quot;auto&quot;&gt;&lt;font style=&quot;vertical-align: inherit;&quot; dir=&quot;auto&quot;&gt;Drf = D/Rf&lt;/font&gt;&lt;/font&gt;&lt;/font&gt;&lt;/font&gt;&lt;/font&gt;&lt;/font&gt;" style="text;strokeColor=none;fillColor=none;html=1;align=center;verticalAlign=middle;whiteSpace=wrap;rounded=0;fontSize=16;" vertex="1" parent="1">
          <mxGeometry x="240" y="425" width="100" height="30" as="geometry" />
        </mxCell>
        <mxCell id="kEQ07MBqHLjRysPlzJDt-25" value="&lt;font style=&quot;vertical-align: inherit;&quot; dir=&quot;auto&quot;&gt;&lt;font style=&quot;vertical-align: inherit;&quot; dir=&quot;auto&quot;&gt;&lt;font style=&quot;vertical-align: inherit;&quot; dir=&quot;auto&quot;&gt;&lt;font style=&quot;vertical-align: inherit;&quot; dir=&quot;auto&quot;&gt;&lt;font style=&quot;vertical-align: inherit;&quot; dir=&quot;auto&quot;&gt;&lt;font style=&quot;vertical-align: inherit;&quot; dir=&quot;auto&quot;&gt;&lt;font style=&quot;vertical-align: inherit;&quot; dir=&quot;auto&quot;&gt;&lt;font style=&quot;vertical-align: inherit;&quot; dir=&quot;auto&quot;&gt;Сr = Drr*х&lt;/font&gt;&lt;/font&gt;&lt;/font&gt;&lt;/font&gt;&lt;/font&gt;&lt;/font&gt;&lt;/font&gt;&lt;/font&gt;" style="text;strokeColor=none;fillColor=none;html=1;align=center;verticalAlign=middle;whiteSpace=wrap;rounded=0;fontSize=16;" vertex="1" parent="1">
          <mxGeometry x="240" y="540" width="100" height="30" as="geometry" />
        </mxCell>
        <mxCell id="kEQ07MBqHLjRysPlzJDt-26" value="&lt;font style=&quot;vertical-align: inherit;&quot; dir=&quot;auto&quot;&gt;&lt;font style=&quot;vertical-align: inherit;&quot; dir=&quot;auto&quot;&gt;&lt;font style=&quot;vertical-align: inherit;&quot; dir=&quot;auto&quot;&gt;&lt;font style=&quot;vertical-align: inherit;&quot; dir=&quot;auto&quot;&gt;&lt;font style=&quot;vertical-align: inherit;&quot; dir=&quot;auto&quot;&gt;&lt;font style=&quot;vertical-align: inherit;&quot; dir=&quot;auto&quot;&gt;&lt;font style=&quot;vertical-align: inherit;&quot; dir=&quot;auto&quot;&gt;&lt;font style=&quot;vertical-align: inherit;&quot; dir=&quot;auto&quot;&gt;&lt;font style=&quot;vertical-align: inherit;&quot; dir=&quot;auto&quot;&gt;&lt;font style=&quot;vertical-align: inherit;&quot; dir=&quot;auto&quot;&gt;Cf = DRf*x&lt;/font&gt;&lt;/font&gt;&lt;/font&gt;&lt;/font&gt;&lt;/font&gt;&lt;/font&gt;&lt;/font&gt;&lt;/font&gt;&lt;/font&gt;&lt;/font&gt;" style="text;strokeColor=none;fillColor=none;html=1;align=center;verticalAlign=middle;whiteSpace=wrap;rounded=0;fontSize=16;" vertex="1" parent="1">
          <mxGeometry x="240" y="645" width="100" height="30" as="geometry" />
        </mxCell>
        <mxCell id="kEQ07MBqHLjRysPlzJDt-30" value="" style="edgeStyle=none;curved=1;rounded=0;orthogonalLoop=1;jettySize=auto;html=1;fontSize=12;startSize=8;endSize=8;exitX=0.5;exitY=1;exitDx=0;exitDy=0;" edge="1" parent="1" source="kEQ07MBqHLjRysPlzJDt-18" target="kEQ07MBqHLjRysPlzJDt-29">
          <mxGeometry relative="1" as="geometry">
            <mxPoint x="290" y="820" as="sourcePoint" />
          </mxGeometry>
        </mxCell>
        <mxCell id="kEQ07MBqHLjRysPlzJDt-27" value="&lt;font style=&quot;vertical-align: inherit;&quot; dir=&quot;auto&quot;&gt;&lt;font style=&quot;vertical-align: inherit;&quot; dir=&quot;auto&quot;&gt;S = Cf-Cr&lt;/font&gt;&lt;/font&gt;" style="text;strokeColor=none;fillColor=none;html=1;align=center;verticalAlign=middle;whiteSpace=wrap;rounded=0;fontSize=16;" vertex="1" parent="1">
          <mxGeometry x="240" y="765" width="100" height="30" as="geometry" />
        </mxCell>
        <mxCell id="kEQ07MBqHLjRysPlzJDt-29" value="" style="shape=parallelogram;perimeter=parallelogramPerimeter;whiteSpace=wrap;html=1;fixedSize=1;" vertex="1" parent="1">
          <mxGeometry x="230" y="850" width="120" height="60" as="geometry" />
        </mxCell>
        <mxCell id="kEQ07MBqHLjRysPlzJDt-31" value="&lt;font style=&quot;vertical-align: inherit;&quot; dir=&quot;auto&quot;&gt;&lt;font style=&quot;vertical-align: inherit;&quot; dir=&quot;auto&quot;&gt;&lt;font style=&quot;vertical-align: inherit;&quot; dir=&quot;auto&quot;&gt;&lt;font style=&quot;vertical-align: inherit;&quot; dir=&quot;auto&quot;&gt;&lt;font style=&quot;vertical-align: inherit;&quot; dir=&quot;auto&quot;&gt;&lt;font style=&quot;vertical-align: inherit;&quot; dir=&quot;auto&quot;&gt;Cr, S&lt;/font&gt;&lt;/font&gt;&lt;/font&gt;&lt;/font&gt;&lt;/font&gt;&lt;/font&gt;" style="text;strokeColor=none;fillColor=none;html=1;align=center;verticalAlign=middle;whiteSpace=wrap;rounded=0;fontSize=16;" vertex="1" parent="1">
          <mxGeometry x="240" y="865" width="100" height="30" as="geometry" />
        </mxCell>
        <mxCell id="kEQ07MBqHLjRysPlzJDt-32" style="edgeStyle=none;curved=1;rounded=0;orthogonalLoop=1;jettySize=auto;html=1;entryX=0.5;entryY=1;entryDx=0;entryDy=0;fontSize=12;startSize=8;endSize=8;" edge="1" parent="1" source="kEQ07MBqHLjRysPlzJDt-18" target="kEQ07MBqHLjRysPlzJDt-18">
          <mxGeometry relative="1" as="geometry" />
        </mxCell>
        <mxCell id="kEQ07MBqHLjRysPlzJDt-33" value="" style="ellipse;whiteSpace=wrap;html=1;" vertex="1" parent="1">
          <mxGeometry x="230" y="950" width="120" height="80" as="geometry" />
        </mxCell>
        <mxCell id="kEQ07MBqHLjRysPlzJDt-34" style="edgeStyle=none;curved=1;rounded=0;orthogonalLoop=1;jettySize=auto;html=1;entryX=0.5;entryY=0;entryDx=0;entryDy=0;fontSize=12;startSize=8;endSize=8;" edge="1" parent="1" source="kEQ07MBqHLjRysPlzJDt-29" target="kEQ07MBqHLjRysPlzJDt-33">
          <mxGeometry relative="1" as="geometry" />
        </mxCell>
        <mxCell id="kEQ07MBqHLjRysPlzJDt-35" value="&lt;font style=&quot;vertical-align: inherit;&quot; dir=&quot;auto&quot;&gt;&lt;font style=&quot;vertical-align: inherit;&quot; dir=&quot;auto&quot;&gt;Конец&lt;/font&gt;&lt;/font&gt;" style="text;strokeColor=none;fillColor=none;html=1;align=center;verticalAlign=middle;whiteSpace=wrap;rounded=0;fontSize=16;" vertex="1" parent="1">
          <mxGeometry x="260" y="975" width="60" height="30" as="geometry" />
        </mxCell>
      </root>
    </mxGraphModel>
  </diagram>
</mxfile>
